#!OML:ASF X:\für Bonn\!DataBase\2005_08_12_Daniel\c3d\Daniel.ASF
:FULLY-SPECIFIED
:DEGREES
139
root 4.4358 15.9592 7.06597 887.143 -39.2347 -902.24
lowerback 35.2596 -0.995902 -1.79983
upperback 10.521 -4.61467 -3.30313
thorax -6.31346 -3.17191 -0.748335
lowerneck -2.51341 3.08036 -2.63085
upperneck -1.24612 4.15346 -0.458857
head -0.0134688 2.0782 0.314312
rclavicle 1.94809e-014 -1.35174e-014
rhumerus -45.2804 3.14206 -91.5607
rradius 68.9784
rwrist 2.27414
rhand -28.4949 14.0592
rfingers 7.12502
rthumb -1.8639 -15.9124
lclavicle 1.94809e-014 -1.35174e-014
lhumerus -23.8419 13.0428 84.676
lradius 75.3623
lwrist -7.93054
lhand -27.295 0.339095
lfingers 7.12502
lthumb -0.705049 30.3177
rfemur -31.3282 20.1046 16.599
rtibia 29.7304
rfoot -22.9296 -10.4913
rtoes -16.7137
lfemur 9.62919 10.0034 -22.4565
ltibia 53.8293
lfoot -38.5621 -7.04854
ltoes -1.46387
140
root 4.32959 15.9273 6.96091 887.25 -39.2252 -902.298
lowerback 35.1517 -1.13594 -1.68121
upperback 10.499 -4.72939 -3.26286
thorax -6.30446 -3.22094 -0.730938
lowerneck -2.59092 3.14847 -2.55291
upperneck -1.13753 4.24663 -0.509674
head 0.0335605 2.12336 0.28954
rclavicle 5.56597e-015 -3.33958e-014
rhumerus -45.2935 3.01098 -91.4737
rradius 69.0974
rwrist 2.26505
rhand -28.5283 14.0711
rfingers 7.12502
rthumb -1.89619 -15.9002
lclavicle 5.56597e-015 -3.33958e-014
lhumerus -23.7682 13.0247 84.8989
lradius 75.7202
lwrist -7.95639
lhand -27.1958 0.613878
lfingers 7.12502
lthumb -0.609193 30.5928
rfemur -31.6342 19.8776 16.6066
rtibia 29.9222
rfoot -22.5491 -9.98243
rtoes -17.8266
lfemur 10.2901 10.0386 -22.4709
ltibia 53.5917
lfoot -38.8864 -7.14922
ltoes -1.35562
141
root 4.22426 15.8975 6.85778 887.312 -39.2366 -902.247
lowerback 35.0786 -1.31566 -1.46487
upperback 10.4767 -4.86092 -3.20742
thorax -6.31342 -3.27692 -0.741385
lowerneck -2.71009 3.22639 -2.53536
upperneck -1.03479 4.35563 -0.483455
head 0.0826512 2.17684 0.298901
rclavicle 2.42517e-014 -1.35174e-014
rhumerus -45.2211 2.91339 -91.394
rradius 69.1986
rwrist 2.1645
rhand -28.4737 14.003
rfingers 7.12502
rthumb -1.84346 -15.9688
lclavicle 2.42517e-014 -1.35174e-014
lhumerus -23.6659 13.0623 85.1421
lradius 76.1275
lwrist -7.9982
lhand -26.9786 0.907871
lfingers 7.12502
lthumb -0.399459 30.8872
rfemur -31.9262 19.3595 16.7845
rtibia 30.1923
rfoot -21.6513 -9.27366
rtoes -18.6963
lfemur 10.9044 10.0301 -22.4202
ltibia 53.3732
lfoot -39.1647 -7.13552
ltoes -1.48602
142
root 4.11778 15.8672 6.75151 887.442 -39.2356 -902.268
lowerback 34.964 -1.47747 -1.31031
upperback 10.4514 -4.99088 -3.17598
thorax -6.30944 -3.33196 -0.747078
lowerneck -2.75361 3.31173 -2.45313
upperneck -0.941248 4.47056 -0.518964
head 0.119386 2.23328 0.277734
rclavicle 3.37934e-014 -5.00937e-014
rhumerus -45.2455 2.90125 -91.3083
rradius 69.3063
rwrist 2.16784
rhand -28.5934 13.9286
rfingers 7.12502
rthumb -1.95905 -16.0421
lclavicle 3.37934e-014 -5.00937e-014
lhumerus -23.6377 13.1083 85.3387
lradius 76.5678
lwrist -8.07047
lhand -26.876 1.15358
lfingers 7.12502
lthumb -0.300301 31.1331
rfemur -32.2101 18.6995 16.9762
rtibia 30.538
rfoot -20.4003 -8.47274
rtoes -18.999
lfemur 11.4957 10.0271 -22.4198
ltibia 53.1652
lfoot -39.3418 -7.18149
ltoes -1.33142
143
root 4.01243 15.8377 6.64535 887.511 -39.2488 -902.207
lowerback 34.9062 -1.65091 -1.10073
upperback 10.4131 -5.11703 -3.12774
thorax -6.34192 -3.38396 -0.762179
lowerneck -2.72481 3.37472 -2.40734
upperneck -0.912112 4.55338 -0.559784
head 0.124623 2.2744 0.258397
rclavicle -8.38871e-014 9.62118e-014
rhumerus -45.2751 2.86281 -91.216
rradius 69.4223
rwrist 2.10505
rhand -28.5731 13.7671
rfingers 7.12502
rthumb -1.9394 -16.2039
lclavicle -8.38871e-014 9.62118e-014
lhumerus -23.6578 13.1663 85.5399
lradius 76.963
lwrist -8.11722
lhand -26.7944 1.26777
lfingers 7.12502
lthumb -0.221516 31.2474
rfemur -32.449 18.0159 17.2348
rtibia 30.9131
rfoot -18.9829 -7.65516
rtoes -19.0801
lfemur 12.0784 9.9973 -22.3549
ltibia 52.97
lfoot -39.5196 -7.20416
ltoes -1.50332
144
root 3.90559 15.8111 6.53861 887.596 -39.2404 -902.169
lowerback 34.8335 -1.80523 -0.885801
upperback 10.3845 -5.21984 -3.08843
thorax -6.35979 -3.42583 -0.798957
lowerneck -2.5646 3.43874 -2.37337
upperneck -0.998137 4.63277 -0.549051
head 0.0723469 2.31557 0.252221
rclavicle -3.26007e-014 7.63333e-014
rhumerus -45.3031 2.80202 -91.1138
rradius 69.5023
rwrist 2.03223
rhand -28.6413 13.5365
rfingers 7.12502
rthumb -2.00526 -16.4338
lclavicle -3.26007e-014 7.63333e-014
lhumerus -23.716 13.1584 85.7139
lradius 77.2974
lwrist -8.19481
lhand -26.7689 1.32774
lfingers 7.12502
lthumb -0.196912 31.3074
rfemur -32.6605 17.1937 17.5219
rtibia 31.3424
rfoot -17.4162 -6.85452
rtoes -18.713
lfemur 12.6784 9.96208 -22.314
ltibia 52.764
lfoot -39.6109 -7.24223
ltoes -1.59092
145
root 3.79877 15.7865 6.43073 887.71 -39.2191 -902.097
lowerback 34.723 -1.95434 -0.685522
upperback 10.368 -5.31861 -3.02361
thorax -6.34715 -3.46725 -0.805769
lowerneck -2.52956 3.49822 -2.29894
upperneck -0.979533 4.70967 -0.640645
head 0.0754004 2.3535 0.212627
rclavicle 7.63333e-014 3.97569e-015
rhumerus -45.2609 2.71155 -91.0017
rradius 69.5194
rwrist 2.08682
rhand -28.6481 13.396
rfingers 7.12502
rthumb -2.01183 -16.5743
lclavicle 7.63333e-014 3.97569e-015
lhumerus -23.7281 13.2282 85.9174
lradius 77.5965
lwrist -8.19337
lhand -26.7757 1.31996
lfingers 7.12502
lthumb -0.203475 31.2996
rfemur -32.9135 16.338 17.8297
rtibia 31.836
rfoot -15.7714 -5.91549
rtoes -17.6391
lfemur 13.2159 9.94298 -22.2495
ltibia 52.5508
lfoot -39.5977 -7.25924
ltoes -1.61493
146
root 3.69316 15.7643 6.32094 887.778 -39.2083 -901.987
lowerback 34.7074 -2.0957 -0.503161
upperback 10.3319 -5.41344 -2.91323
thorax -6.38372 -3.5073 -0.751438
lowerneck -2.38374 3.56559 -2.25581
upperneck -1.08911 4.79247 -0.740156
head 0.0214258 2.39582 0.17169
rclavicle 3.02153e-014 -7.79236e-014
rhumerus -45.2701 2.64783 -90.8702
rradius 69.5568
rwrist 2.18164
rhand -28.7631 13.0804
rfingers 7.12502
rthumb -2.12295 -16.8888
lclavicle 3.02153e-014 -7.79236e-014
lhumerus -23.801 13.3051 86.1421
lradius 77.8829
lwrist -8.24886
lhand -26.8857 1.38159
lfingers 7.12502
lthumb -0.309699 31.3611
rfemur -33.1448 15.5845 18.1443
rtibia 32.4125
rfoot -14.1281 -5.13427
rtoes -15.4031
lfemur 13.7804 9.89009 -22.1451
ltibia 52.3224
lfoot -39.6019 -7.31099
ltoes -1.69609
